<svg width="32" height="32" viewBox="0 0 32 32" fill="none" xmlns="http://www.w3.org/2000/svg">
<path d="M15.1999 4.26666C9.32147 4.26666 4.5332 9.05493 4.5332 14.9333C4.5332 20.8117 9.32147 25.6 15.1999 25.6C17.7561 25.6 20.1037 24.6922 21.9436 23.1854L28.3124 29.5542C28.4107 29.6565 28.5284 29.7383 28.6587 29.7946C28.7889 29.8509 28.9291 29.8806 29.071 29.8821C29.2129 29.8835 29.3537 29.8566 29.4851 29.803C29.6165 29.7493 29.7359 29.67 29.8362 29.5697C29.9366 29.4693 30.0159 29.35 30.0695 29.2186C30.1232 29.0872 30.1501 28.9464 30.1486 28.8045C30.1472 28.6626 30.1174 28.5224 30.0611 28.3921C30.0048 28.2618 29.9231 28.1441 29.8207 28.0458L23.452 21.6771C24.9588 19.8372 25.8665 17.4896 25.8665 14.9333C25.8665 9.05493 21.0783 4.26666 15.1999 4.26666ZM15.1999 6.4C19.9253 6.4 23.7332 10.2079 23.7332 14.9333C23.7332 19.6588 19.9253 23.4667 15.1999 23.4667C10.4744 23.4667 6.66654 19.6588 6.66654 14.9333C6.66654 10.2079 10.4744 6.4 15.1999 6.4Z" fill="#FF6007"/>
</svg>
