<svg width="32" height="32" viewBox="0 0 32 32" fill="none" xmlns="http://www.w3.org/2000/svg">
<path d="M10.6665 9.33333C10.6665 10.7478 11.2284 12.1044 12.2286 13.1046C13.2288 14.1048 14.5853 14.6667 15.9998 14.6667C17.4143 14.6667 18.7709 14.1048 19.7711 13.1046C20.7713 12.1044 21.3332 10.7478 21.3332 9.33333C21.3332 7.91885 20.7713 6.56229 19.7711 5.5621C18.7709 4.5619 17.4143 4 15.9998 4C14.5853 4 13.2288 4.5619 12.2286 5.5621C11.2284 6.56229 10.6665 7.91885 10.6665 9.33333Z" stroke="#FF6007" stroke-width="2.1" stroke-linecap="round" stroke-linejoin="round"/>
<path d="M6.6665 27.3333V27.3333C6.6665 22.915 10.2482 19.3333 14.6665 19.3333H17.3332C21.7514 19.3333 25.3332 22.915 25.3332 27.3333V27.3333" stroke="#FF6007" stroke-width="2.1" stroke-linecap="round" stroke-linejoin="round"/>
</svg>
