<svg width="32" height="32" viewBox="0 0 32 32" fill="none" xmlns="http://www.w3.org/2000/svg">
<path d="M5.3335 25.3334C5.3335 26.0406 5.61445 26.7189 6.11454 27.219C6.61464 27.7191 7.29292 28 8.00016 28C8.70741 28 9.38568 27.7191 9.88578 27.219C10.3859 26.7189 10.6668 26.0406 10.6668 25.3334C10.6668 24.6261 10.3859 23.9478 9.88578 23.4477C9.38568 22.9476 8.70741 22.6667 8.00016 22.6667C7.29292 22.6667 6.61464 22.9476 6.11454 23.4477C5.61445 23.9478 5.3335 24.6261 5.3335 25.3334Z" stroke="#FF6007" stroke-width="2" stroke-linecap="round" stroke-linejoin="round"/>
<path d="M20 25.3334C20 26.0406 20.281 26.7189 20.781 27.219C21.2811 27.7191 21.9594 28 22.6667 28C23.3739 28 24.0522 27.7191 24.5523 27.219C25.0524 26.7189 25.3333 26.0406 25.3333 25.3334C25.3333 24.6261 25.0524 23.9478 24.5523 23.4477C24.0522 22.9476 23.3739 22.6667 22.6667 22.6667C21.9594 22.6667 21.2811 22.9476 20.781 23.4477C20.281 23.9478 20 24.6261 20 25.3334Z" stroke="#FF6007" stroke-width="2" stroke-linecap="round" stroke-linejoin="round"/>
<path d="M22.6668 22.6667H8.00016V4H5.3335" stroke="#FF6007" stroke-width="2" stroke-linecap="round" stroke-linejoin="round"/>
<path d="M8 6.66669L26.6667 8.00002L25.3333 17.3334H8" stroke="#FF6007" stroke-width="2" stroke-linecap="round" stroke-linejoin="round"/>
</svg>
